# xmcd CD database file
#
# Track frame offsets:
#	150
#	16260
#	32445
#	53316
#	69320
#	84160
#	99880
#	117580
#	137704
#	153112
#	171940
#	188719
#	205403
#	226416
#	245072
#
# Disc length: 3462 seconds
#
# Revision: 1
# Processed by: cddbd v1.5.2PL0 Copyright (c) Steve Scherf et al.
# Submitted via: CDex 1.51
#
DISCID=b40d840f
DTITLE=Various Artist - STTW3324
DYEAR=1900
DGENRE=Blues
TTITLE0=Aloe Blacc - I Need A Dollar
TTITLE1=Birdy - Skinny Love
TTITLE2=Script The - Science and Faith
TTITLE3=Selena Gomez and The Scene - Who Says
TTITLE4=All Time Low - I Feel Like Dancin'
TTITLE5=Saturdays The - Notorious
TTITLE6=Take That - Love Love
TTITLE7=Lady Gaga - Judas
TTITLE8=Scouting For Girls - Love How It Hurts
TTITLE9=Katy Perry - Last Friday Night (TGIF)
TTITLE10=Olly Murs - Heart Skips A Beat
TTITLE11=Emily Osment - Lovesick
TTITLE12=Chris Brown Ft Justin Bieber - Next To You
TTITLE13=Ellie Goulding - This Love
TTITLE14=Blue - I Can
EXTD=
EXTT0=
EXTT1=
EXTT2=
EXTT3=
EXTT4=
EXTT5=
EXTT6=
EXTT7=
EXTT8=
EXTT9=
EXTT10=
EXTT11=
EXTT12=
EXTT13=
EXTT14=
PLAYORDER=
